<?xml version="1.0" encoding="utf-8"?>
<!-- Generator: Adobe Illustrator 28.0.0, SVG Export Plug-In . SVG Version: 6.00 Build 0)  -->
<svg version="1.1" id="Layer_1" xmlns="http://www.w3.org/2000/svg" xmlns:xlink="http://www.w3.org/1999/xlink" x="0px" y="0px"
	 viewBox="0 0 1024 1024" style="enable-background:new 0 0 1024 1024;" xml:space="preserve">
<style type="text/css">
	.st0{fill:#E55AB0;}
	.st1{display:none;fill:#E55AB0;}
	.st2{fill:#FFD2F0;}
</style>
<circle class="st0" cx="512" cy="512" r="512"/>
<rect class="st1" width="1024" height="1024"/>
<rect class="st1" width="1024" height="1024"/>
<path class="st2" d="M737.29,654.39c-25.25-20.02-28.37-108.81-5.92-235.83c8.02-45.29-5.24-72.87-27.97-88.53
	c3.84-7.48,6.13-15.62,6.24-24.47c0,0,21.75-133.79-28.72-147.58c-50.49-13.77-106,57.64-112.6,84.05c0,0-65.58-66.5-104.62-29.74
	c-39.05,36.77-20.63,108.79-20.63,108.79s-104.95-25.12-148.82,29.87c-43.87,55.01,65.84,125.97,65.84,125.97
	S161,586.45,275.22,661.25c114.22,74.79,132.65,69.1,132.65,69.1s-4.65,124.31,88.73,84.21c4.88-2.1,9.41-4.54,13.61-7.29
	c54.21,59.61,122.22,50.57,122.22,50.57c78.36-0.73,70.26-100.9,70.26-100.9c-22.88,20.06-74.37,6.72-95.31-9.8
	c-20.93-16.5-9.54-31.44-9.54-31.44c43.66,37.78,107.66,32.61,106.48,18.01c-1.18-14.61-15.11-70.19-8.61-67.56
	C702.22,668.77,762.54,674.4,737.29,654.39z M636.07,388.19c0,0,9.82,12.91,14.1,33.51c-7.46,1.22-15.46,3.41-23.66,7.07
	c-5.7-6.94-11.89-12.47-18.01-16.89C621.52,395.36,636.07,388.19,636.07,388.19z M569.04,399.11c0,0,33.1,4.48,56.28,34.71
	c3.37,4.4,6.54,9.35,9.36,14.9c-3.37-2.48-7.29-4.34-11.61-5.35c-4.32-1.02-8.65-1.11-12.77-0.39c-8.16,1.41-15.52,5.96-20.42,12.63
	c-2.48,3.37-4.34,7.28-5.35,11.6c-1.02,4.32-1.1,8.65-0.39,12.77c0.47,2.74,1.3,5.38,2.44,7.88c6.03,12.98,15.47,28.68,15.76,29.17
	c0.01,0.01,0.01,0.01,0.01,0.01c-32.75,14.19-62.08,4.21-62.08,4.21s4.48-33.1,34.71-56.28
	C558.28,430.73,569.04,399.11,569.04,399.11z M642.97,480.98c-3.54,15.04-18.62,24.37-33.66,20.83
	c-15.04-3.55-24.37-18.62-20.83-33.66c3.55-15.04,18.62-24.37,33.66-20.83C637.19,450.86,646.51,465.94,642.97,480.98z
	 M562.88,440.12c1.21,7.35,3.38,15.4,7.07,23.66c-6.99,5.75-12.52,11.98-16.88,18.02c-16.54-13.02-23.72-27.59-23.72-27.59
	S542.27,444.39,562.88,440.12z M532.5,707.12c-22.42,13.96-52.2,14.88-75.58,2.65l-2.53-1.27c-2.3-1.51-4.98-2.95-7.17-4.59
	c-1.51-1.22-5.28-3.93-6.62-5.3c-1-0.98-3.11-2.91-4.12-3.89c-9.65-10.18-16.91-22.96-19.83-36.73
	c-8.67-36.37,12.16-75.72,48.07-86.52c0.63-0.18,1.3,0.16,1.49,0.8c0.16,0.53-0.06,1.08-0.51,1.35c-1.44,0.91-2.88,1.79-4.31,2.65
	l-4.06,2.87l-3.85,3.06c-16.87,14.29-26.88,36.8-24.81,58.68c0.28,4.35,1.12,9.3,2.42,13.46c0.57,2.51,2.09,6.11,3.01,8.55
	c1.41,2.68,2.56,5.47,4.29,7.96c0.71,1.12,1.63,2.75,2.46,3.77c2.07,2.92,4.81,6.04,7.3,8.57c0.84,0.74,2.49,2.27,3.32,3.02
	c8.44,7.37,18.91,12.41,29.91,14.6l4.42,0.79c2.16,0.24,4.57,0.31,6.74,0.51c1.56-0.02,5.17-0.14,6.77-0.16
	c1.52-0.23,5.24-0.57,6.7-0.87c1.09-0.27,3.33-0.74,4.42-0.99c1.59-0.24,4.93-1.51,6.49-1.97c18.85-6.91,34.16-22.38,40.78-41.59
	c0.35-1.26,1.22-3.23,1.48-4.52l1.11-4.65l0.28-1.18l0.18-1.19c0.6-3.98,1.2-8.04,1.14-12.08c0.08-3.28-0.15-6.58-0.51-9.87
	c-0.26-2.23,3.02-2.98,3.73-0.81C575.74,654.14,561.2,689.94,532.5,707.12z M595.38,560.94c0,0-9.83-12.91-14.1-33.51
	c7.45-1.22,15.46-3.42,23.66-7.08c5.71,6.94,11.89,12.48,18.01,16.9C609.93,553.77,595.38,560.94,595.38,560.94z M662.41,550.02
	c0,0-33.1-4.48-56.27-34.71c-3.38-4.4-6.54-9.35-9.36-14.9c3.37,2.48,7.28,4.34,11.6,5.35c4.32,1.02,8.65,1.1,12.78,0.39
	c8.16-1.41,15.51-5.97,20.42-12.63c2.48-3.37,4.33-7.28,5.35-11.6c1.02-4.32,1.11-8.65,0.39-12.77c-0.47-2.74-1.3-5.38-2.44-7.88
	c-6.02-12.98-15.47-28.68-15.76-29.17c-0.01-0.01-0.01-0.02-0.01-0.02c32.76-14.19,62.09-4.2,62.09-4.2s-4.49,33.1-34.72,56.28
	C673.18,518.4,662.41,550.02,662.41,550.02z M668.56,509.01c-1.2-7.35-3.37-15.4-7.07-23.66c6.99-5.74,12.53-11.98,16.88-18.02
	c16.55,13.02,23.72,27.58,23.72,27.58S689.18,504.74,668.56,509.01z"/>
</svg>
